<?xml version="1.0" encoding="iso-8859-1"?>
<!-- Uploaded to: SVG Repo, www.svgrepo.com, Generator: SVG Repo Mixer Tools -->
<svg height="800px" width="800px" version="1.1" id="Layer_1" xmlns="http://www.w3.org/2000/svg" xmlns:xlink="http://www.w3.org/1999/xlink" 
	 viewBox="0 0 511.987 511.987" xml:space="preserve">
<path style="fill:#EAC6BB;" d="M450.878,325.693c-3.344-0.281-7.015-0.406-11.046-0.406c-26.25,0-67.123,5.594-123.138,15.469
	c-6.969-19.875-51.248-28.594-51.248-28.594s-95.568-5.203-156.566-8.529c-3.891-0.219-7.656-0.312-11.281-0.312
	C16.797,303.321,0,353.757,0,353.757v52.232c0.031,29.967,92.349,44.639,92.662,44.686c73.334,14.484,163.464,19.344,163.464,19.344
	s246.985-97.043,253.47-102.699C516.08,361.646,513.236,330.693,450.878,325.693z"/>
<path style="fill:#DBADA2;" d="M385.911,329.771c-19.405,2.578-42.029,6.203-67.889,10.75c-3.297,1.484-6.688,2.969-10.172,4.453
	c-67.779,28.922-115.715,34.984-143.988,34.984c-5.891,0-10.664,4.779-10.664,10.67s4.773,10.672,10.664,10.672
	c44.108,0,95.482-12.406,152.691-36.842C351.147,349.678,376.958,335.037,385.911,329.771z"/>
<path style="fill:#F6BB42;" d="M374.756,181.463L223.603,73.856l-55.678,78.201l58.771,41.842l12.515,23.547l23.562,3.688
	l11.188,21.062l23.562,3.672l11.202,21.062l31.828,4.984l48.311-20.453L374.756,181.463z"/>
<g>
	<path style="fill:#FFCE54;" d="M259.681,151.917c-3.414,4.797-2.297,11.453,2.508,14.875l121.816,86.732l4.859-2.062l-4.859-24.141
		l-109.449-77.919C269.759,145.995,263.102,147.104,259.681,151.917z"/>
	<path style="fill:#FFCE54;" d="M254.923,56.873c-13.688-9.75-29.773-14.906-46.53-14.906c-25.968,0-50.452,12.625-65.498,33.749
		c-12.445,17.484-17.335,38.765-13.781,59.92c3.562,21.156,15.148,39.671,32.632,52.108c13.688,9.75,29.781,14.906,46.53,14.906
		c25.968,0,50.452-12.625,65.499-33.749C299.461,132.808,291.008,82.559,254.923,56.873z M183.253,106.746
		c-5.812,0.984-11.312-2.938-12.289-8.75c-0.977-5.797,2.938-11.312,8.75-12.281c5.805-0.984,11.312,2.937,12.289,8.75
		C192.979,100.277,189.057,105.777,183.253,106.746z"/>
</g>
</svg>