<?xml version="1.0" encoding="iso-8859-1"?>
<!-- Uploaded to: SVG Repo, www.svgrepo.com, Generator: SVG Repo Mixer Tools -->
<svg height="800px" width="800px" version="1.1" id="Layer_1" xmlns="http://www.w3.org/2000/svg" xmlns:xlink="http://www.w3.org/1999/xlink" 
	 viewBox="0 0 512 512" xml:space="preserve">
<polygon style="fill:#A9D0D3;" points="371.2,281.6 371.2,128 443.87,128 505.31,281.6 "/>
<path style="fill:#6D7584;" d="M115.2,435.2C86.963,435.2,64,412.237,64,384s22.963-51.2,51.2-51.2s51.2,22.963,51.2,51.2
	S143.437,435.2,115.2,435.2z"/>
<path style="fill:#FF877F;" d="M449.05,384l-2.082-10.249c-4.821-23.723-25.916-40.951-50.167-40.951
	c-24.252,0-45.346,17.229-50.167,40.951L344.55,384H167.45l-2.082-10.249c-4.821-23.723-25.916-40.951-50.167-40.951
	s-45.346,17.229-50.167,40.951L62.95,384H12.8V281.6h486.4V384H449.05z"/>
<path style="fill:#6D7584;" d="M396.8,435.2c-28.237,0-51.2-22.963-51.2-51.2s22.963-51.2,51.2-51.2S448,355.763,448,384
	S425.037,435.2,396.8,435.2z"/>
<path style="fill:#E9EBEF;" d="M12.8,281.6V128h358.4v153.6H12.8z"/>
<path style="fill:#FF877F;" d="M320,128v-25.6c0-14.114,11.486-25.6,25.6-25.6c14.114,0,25.6,11.486,25.6,25.6V128H320z"/>
<g>
	<polygon style="fill:#573A32;" points="204.8,166.4 179.2,166.4 179.2,192 153.6,192 153.6,217.6 179.2,217.6 179.2,243.2 
		204.8,243.2 204.8,217.6 230.4,217.6 230.4,192 204.8,192 	"/>
	<path style="fill:#573A32;" d="M510.165,259.294l-51.2-128c-3.883-9.719-13.295-16.094-23.765-16.094H384v-12.8
		c0-21.171-17.229-38.4-38.4-38.4c-21.171,0-38.4,17.229-38.4,38.4v12.8H25.6C11.46,115.2,0,126.66,0,140.8v230.4
		c0,14.14,11.46,25.6,25.6,25.6h26.889C58.419,426.01,84.233,448,115.2,448s56.781-21.99,62.711-51.2h156.177
		c5.931,29.21,31.744,51.2,62.711,51.2s56.781-21.99,62.711-51.2H486.4c14.14,0,25.6-11.46,25.6-25.6V268.8
		C512,265.54,511.377,262.315,510.165,259.294z M332.8,102.4c0-7.049,5.751-12.8,12.8-12.8c7.049,0,12.8,5.751,12.8,12.8v12.8h-25.6
		V102.4z M25.6,140.8h332.8v128H25.6V140.8z M115.2,422.4c-21.171,0-38.4-17.229-38.4-38.4c0-21.171,17.229-38.4,38.4-38.4
		s38.4,17.229,38.4,38.4C153.6,405.171,136.371,422.4,115.2,422.4z M396.8,422.4c-21.171,0-38.4-17.229-38.4-38.4
		c0-21.171,17.229-38.4,38.4-38.4s38.4,17.229,38.4,38.4C435.2,405.171,417.971,422.4,396.8,422.4z M486.4,371.2h-26.889
		c-5.931-29.21-31.744-51.2-62.711-51.2s-56.781,21.99-62.711,51.2H177.911c-5.931-29.21-31.744-51.2-62.711-51.2
		s-56.781,21.99-62.711,51.2H25.6v-76.8h460.8V371.2z M384,268.8v-128h51.2l51.2,128H384z"/>
</g>
</svg>